<?xml version="1.0" encoding="utf-8"?>
<!-- Generator: Adobe Illustrator 16.0.0, SVG Export Plug-In . SVG Version: 6.00 Build 0)  -->
<!DOCTYPE svg PUBLIC "-//W3C//DTD SVG 1.1//EN" "http://www.w3.org/Graphics/SVG/1.1/DTD/svg11.dtd">
<svg version="1.1" xmlns="http://www.w3.org/2000/svg" xmlns:xlink="http://www.w3.org/1999/xlink" x="0px" y="0px"
	 width="335.986px" height="235.19px" viewBox="0 0 335.986 235.19" enable-background="new 0 0 335.986 235.19"
	 xml:space="preserve">
<g id="bg">
	<g>
		<g>
			<rect y="-0.141" fill="#00B5FF" width="335.986" height="235.19"/>
		</g>
	</g>
</g>
<g id="text">
	<g>
		<g>
			<text transform="matrix(1 0 0 1 240.1064 196.5801)" fill="#FFFFFF" font-family="'Roboto-Black'" font-size="13.1122">WEB DESIGN</text>
		</g>
	</g>
	<rect x="124.531" y="206.029" fill="none" width="192.407" height="11.9"/>
	<g>
		<g>
			<text transform="matrix(1 0 0 1 124.5312 209.0762)" fill="#FFFFFF" font-family="'Roboto-Medium'" font-size="4">Lo</text>
		</g>
		<g>
			<text transform="matrix(1 0 0 1 129.0059 209.0762)" fill="#FFFFFF" font-family="'Roboto-Medium'" font-size="4">r</text>
		</g>
		<g>
			<text transform="matrix(1 0 0 1 130.373 209.0762)" fill="#FFFFFF" font-family="'Roboto-Medium'" font-size="4">em</text>
		</g>
		<g>
			<text transform="matrix(1 0 0 1 135.9453 209.0762)" fill="#FFFFFF" font-family="'Roboto-Medium'" font-size="4"> </text>
		</g>
		<g>
			<text transform="matrix(1 0 0 1 137.4287 209.0762)" fill="#FFFFFF" font-family="'Roboto-Medium'" font-size="4">ipsum</text>
		</g>
		<g>
			<text transform="matrix(1 0 0 1 148.5557 209.0762)" fill="#FFFFFF" font-family="'Roboto-Medium'" font-size="4"> </text>
		</g>
		<g>
			<text transform="matrix(1 0 0 1 150.0391 209.0762)" fill="#FFFFFF" font-family="'Roboto-Medium'" font-size="4">dolor</text>
		</g>
		<g>
			<text transform="matrix(1 0 0 1 159.2773 209.0762)" fill="#FFFFFF" font-family="'Roboto-Medium'" font-size="4"> </text>
		</g>
		<g>
			<text transform="matrix(1 0 0 1 160.7607 209.0762)" fill="#FFFFFF" font-family="'Roboto-Medium'" font-size="4">sit</text>
		</g>
		<g>
			<text transform="matrix(1 0 0 1 165.2471 209.0762)" fill="#FFFFFF" font-family="'Roboto-Medium'" font-size="4"> </text>
		</g>
		<g>
			<text transform="matrix(1 0 0 1 166.7314 209.0762)" fill="#FFFFFF" font-family="'Roboto-Medium'" font-size="4">amet,</text>
		</g>
		<g>
			<text transform="matrix(1 0 0 1 176.751 209.0762)" fill="#FFFFFF" font-family="'Roboto-Medium'" font-size="4"> </text>
		</g>
		<g>
			<text transform="matrix(1 0 0 1 178.2344 209.0762)" fill="#FFFFFF" font-family="'Roboto-Medium'" font-size="4">consectetur</text>
		</g>
		<g>
			<text transform="matrix(1 0 0 1 199.6016 209.0762)" fill="#FFFFFF" font-family="'Roboto-Medium'" font-size="4"> </text>
		</g>
		<g>
			<text transform="matrix(1 0 0 1 201.085 209.0762)" fill="#FFFFFF" font-family="'Roboto-Medium'" font-size="4">adipiscing</text>
		</g>
		<g>
			<text transform="matrix(1 0 0 1 219.5947 209.0762)" fill="#FFFFFF" font-family="'Roboto-Medium'" font-size="4"> </text>
		</g>
		<g>
			<text transform="matrix(1 0 0 1 221.0781 209.0762)" fill="#FFFFFF" font-family="'Roboto-Medium'" font-size="4">elit,</text>
		</g>
		<g>
			<text transform="matrix(1 0 0 1 227.5176 209.0762)" fill="#FFFFFF" font-family="'Roboto-Medium'" font-size="4"> </text>
		</g>
		<g>
			<text transform="matrix(1 0 0 1 229.001 209.0762)" fill="#FFFFFF" font-family="'Roboto-Medium'" font-size="4">sed</text>
		</g>
		<g>
			<text transform="matrix(1 0 0 1 235.4404 209.0762)" fill="#FFFFFF" font-family="'Roboto-Medium'" font-size="4"> </text>
		</g>
		<g>
			<text transform="matrix(1 0 0 1 236.9238 209.0762)" fill="#FFFFFF" font-family="'Roboto-Medium'" font-size="4">do</text>
		</g>
		<g>
			<text transform="matrix(1 0 0 1 241.4551 209.0762)" fill="#FFFFFF" font-family="'Roboto-Medium'" font-size="4"> </text>
		</g>
		<g>
			<text transform="matrix(1 0 0 1 242.9385 209.0762)" fill="#FFFFFF" font-family="'Roboto-Medium'" font-size="4">eiusmod</text>
		</g>
		<g>
			<text transform="matrix(1 0 0 1 258.4248 209.0762)" fill="#FFFFFF" font-family="'Roboto-Medium'" font-size="4"> </text>
		</g>
		<g>
			<text transform="matrix(1 0 0 1 259.9082 209.0762)" fill="#FFFFFF" font-family="'Roboto-Medium'" font-size="4">tempor</text>
		</g>
		<g>
			<text transform="matrix(1 0 0 1 272.7852 209.0762)" fill="#FFFFFF" font-family="'Roboto-Medium'" font-size="4"> </text>
		</g>
		<g>
			<text transform="matrix(1 0 0 1 274.2695 209.0762)" fill="#FFFFFF" font-family="'Roboto-Medium'" font-size="4">vincididunt</text>
		</g>
		<g>
			<text transform="matrix(1 0 0 1 294.1855 209.0762)" fill="#FFFFFF" font-family="'Roboto-Medium'" font-size="4"> </text>
		</g>
		<g>
			<text transform="matrix(1 0 0 1 295.6689 209.0762)" fill="#FFFFFF" font-family="'Roboto-Medium'" font-size="4">ut</text>
		</g>
		<g>
			<text transform="matrix(1 0 0 1 299.3037 209.0762)" fill="#FFFFFF" font-family="'Roboto-Medium'" font-size="4"> </text>
		</g>
		<g>
			<text transform="matrix(1 0 0 1 300.7871 209.0762)" fill="#FFFFFF" font-family="'Roboto-Medium'" font-size="4">labo</text>
		</g>
		<g>
			<text transform="matrix(1 0 0 1 308.5312 209.0762)" fill="#FFFFFF" font-family="'Roboto-Medium'" font-size="4">r</text>
		</g>
		<g>
			<text transform="matrix(1 0 0 1 309.8984 209.0762)" fill="#FFFFFF" font-family="'Roboto-Medium'" font-size="4">e</text>
		</g>
		<g>
			<text transform="matrix(1 0 0 1 311.9922 209.0762)" fill="#FFFFFF" font-family="'Roboto-Medium'" font-size="4"> </text>
		</g>
		<g>
			<text transform="matrix(1 0 0 1 313.4756 209.0762)" fill="#FFFFFF" font-family="'Roboto-Medium'" font-size="4">et </text>
		</g>
		<g>
			<text transform="matrix(1 0 0 1 124.5312 215.0762)" fill="#FFFFFF" font-family="'Roboto-Medium'" font-size="4">dolo</text>
		</g>
		<g>
			<text transform="matrix(1 0 0 1 132.3652 215.0762)" fill="#FFFFFF" font-family="'Roboto-Medium'" font-size="4">r</text>
		</g>
		<g>
			<text transform="matrix(1 0 0 1 133.7324 215.0762)" fill="#FFFFFF" font-family="'Roboto-Medium'" font-size="4">e</text>
		</g>
		<g>
			<text transform="matrix(1 0 0 1 135.8262 215.0762)" fill="#FFFFFF" font-family="'Roboto-Medium'" font-size="4"> </text>
		</g>
		<g>
			<text transform="matrix(1 0 0 1 136.9785 215.0762)" fill="#FFFFFF" font-family="'Roboto-Medium'" font-size="4">magna</text>
		</g>
		<g>
			<text transform="matrix(1 0 0 1 149.3398 215.0762)" fill="#FFFFFF" font-family="'Roboto-Medium'" font-size="4"> </text>
		</g>
		<g>
			<text transform="matrix(1 0 0 1 150.4922 215.0762)" fill="#FFFFFF" font-family="'Roboto-Medium'" font-size="4">aliqua.</text>
		</g>
		<g>
			<text transform="matrix(1 0 0 1 162.5664 215.0762)" fill="#FFFFFF" font-family="'Roboto-Medium'" font-size="4"> </text>
		</g>
		<g>
			<text transform="matrix(1 0 0 1 163.7197 215.0762)" fill="#FFFFFF" font-family="'Roboto-Medium'" font-size="4">Ut</text>
		</g>
		<g>
			<text transform="matrix(1 0 0 1 167.8154 215.0762)" fill="#FFFFFF" font-family="'Roboto-Medium'" font-size="4"> </text>
		</g>
		<g>
			<text transform="matrix(1 0 0 1 168.9678 215.0762)" fill="#FFFFFF" font-family="'Roboto-Medium'" font-size="4">enim</text>
		</g>
		<g>
			<text transform="matrix(1 0 0 1 177.8428 215.0762)" fill="#FFFFFF" font-family="'Roboto-Medium'" font-size="4"> </text>
		</g>
		<g>
			<text transform="matrix(1 0 0 1 178.9951 215.0762)" fill="#FFFFFF" font-family="'Roboto-Medium'" font-size="4">ad</text>
		</g>
		<g>
			<text transform="matrix(1 0 0 1 183.4365 215.0762)" fill="#FFFFFF" font-family="'Roboto-Medium'" font-size="4"> </text>
		</g>
		<g>
			<text transform="matrix(1 0 0 1 184.5889 215.0762)" fill="#FFFFFF" font-family="'Roboto-Medium'" font-size="4">minim</text>
		</g>
		<g>
			<text transform="matrix(1 0 0 1 195.8857 215.0762)" fill="#FFFFFF" font-family="'Roboto-Medium'" font-size="4"> </text>
		</g>
		<g>
			<text transform="matrix(1 0 0 1 197.0381 215.0762)" fill="#FFFFFF" font-family="'Roboto-Medium'" font-size="4">v</text>
		</g>
		<g>
			<text transform="matrix(1 0 0 1 199.04 215.0762)" fill="#FFFFFF" font-family="'Roboto-Medium'" font-size="4">eniam,</text>
		</g>
		<g>
			<text transform="matrix(1 0 0 1 210.9932 215.0762)" fill="#FFFFFF" font-family="'Roboto-Medium'" font-size="4"> </text>
		</g>
		<g>
			<text transform="matrix(1 0 0 1 212.1455 215.0762)" fill="#FFFFFF" font-family="'Roboto-Medium'" font-size="4">quis</text>
		</g>
		<g>
			<text transform="matrix(1 0 0 1 219.7939 215.0762)" fill="#FFFFFF" font-family="'Roboto-Medium'" font-size="4"> </text>
		</g>
		<g>
			<text transform="matrix(1 0 0 1 220.9473 215.0762)" fill="#FFFFFF" font-family="'Roboto-Medium'" font-size="4">nostrud</text>
		</g>
		<g>
			<text transform="matrix(1 0 0 1 234.8633 215.0762)" fill="#FFFFFF" font-family="'Roboto-Medium'" font-size="4"> </text>
		</g>
		<g>
			<text transform="matrix(1 0 0 1 236.0156 215.0762)" fill="#FFFFFF" font-family="'Roboto-Medium'" font-size="4">e</text>
		</g>
		<g>
			<text transform="matrix(1 0 0 1 238.1094 215.0762)" fill="#FFFFFF" font-family="'Roboto-Medium'" font-size="4">x</text>
		</g>
		<g>
			<text transform="matrix(1 0 0 1 240.0977 215.0762)" fill="#FFFFFF" font-family="'Roboto-Medium'" font-size="4">e</text>
		</g>
		<g>
			<text transform="matrix(1 0 0 1 242.1914 215.0762)" fill="#FFFFFF" font-family="'Roboto-Medium'" font-size="4">r</text>
		</g>
		<g>
			<text transform="matrix(1 0 0 1 243.5586 215.0762)" fill="#FFFFFF" font-family="'Roboto-Medium'" font-size="4">citation</text>
		</g>
		<g>
			<text transform="matrix(1 0 0 1 257.1582 215.0762)" fill="#FFFFFF" font-family="'Roboto-Medium'" font-size="4"> </text>
		</g>
		<g>
			<text transform="matrix(1 0 0 1 258.3105 215.0762)" fill="#FFFFFF" font-family="'Roboto-Medium'" font-size="4">ullamco</text>
		</g>
		<g>
			<text transform="matrix(1 0 0 1 272.6504 215.0762)" fill="#FFFFFF" font-family="'Roboto-Medium'" font-size="4"> </text>
		</g>
		<g>
			<text transform="matrix(1 0 0 1 273.8027 215.0762)" fill="#FFFFFF" font-family="'Roboto-Medium'" font-size="4">laboris</text>
		</g>
		<g>
			<text transform="matrix(1 0 0 1 286.0684 215.0762)" fill="#FFFFFF" font-family="'Roboto-Medium'" font-size="4"> </text>
		</g>
		<g>
			<text transform="matrix(1 0 0 1 287.2207 215.0762)" fill="#FFFFFF" font-family="'Roboto-Medium'" font-size="4">nisi</text>
		</g>
		<g>
			<text transform="matrix(1 0 0 1 293.6406 215.0762)" fill="#FFFFFF" font-family="'Roboto-Medium'" font-size="4"> </text>
		</g>
		<g>
			<text transform="matrix(1 0 0 1 294.7939 215.0762)" fill="#FFFFFF" font-family="'Roboto-Medium'" font-size="4">ut</text>
		</g>
		<g>
			<text transform="matrix(1 0 0 1 298.4287 215.0762)" fill="#FFFFFF" font-family="'Roboto-Medium'" font-size="4"> </text>
		</g>
		<g>
			<text transform="matrix(1 0 0 1 299.5811 215.0762)" fill="#FFFFFF" font-family="'Roboto-Medium'" font-size="4">aliquip</text>
		</g>
		<g>
			<text transform="matrix(1 0 0 1 311.665 215.0762)" fill="#FFFFFF" font-family="'Roboto-Medium'" font-size="4"> </text>
		</g>
		<g>
			<text transform="matrix(1 0 0 1 312.8174 215.0762)" fill="#FFFFFF" font-family="'Roboto-Medium'" font-size="4">ex </text>
		</g>
	</g>
	<rect x="123.351" y="17.512" fill="none" width="89.285" height="18.902"/>
	<g>
		<g>
			<text transform="matrix(1 0 0 1 123.3506 20.5591)" fill="#FFFFFF" font-family="'Roboto-Medium'" font-size="4">Lo</text>
		</g>
		<g>
			<text transform="matrix(1 0 0 1 127.8252 20.5591)" fill="#FFFFFF" font-family="'Roboto-Medium'" font-size="4">r</text>
		</g>
		<g>
			<text transform="matrix(1 0 0 1 129.1924 20.5591)" fill="#FFFFFF" font-family="'Roboto-Medium'" font-size="4">em</text>
		</g>
		<g>
			<text transform="matrix(1 0 0 1 134.7646 20.5591)" fill="#FFFFFF" font-family="'Roboto-Medium'" font-size="4"> </text>
		</g>
		<g>
			<text transform="matrix(1 0 0 1 139.0908 20.5591)" fill="#FFFFFF" font-family="'Roboto-Medium'" font-size="4">ipsum</text>
		</g>
		<g>
			<text transform="matrix(1 0 0 1 150.2178 20.5591)" fill="#FFFFFF" font-family="'Roboto-Medium'" font-size="4"> </text>
		</g>
		<g>
			<text transform="matrix(1 0 0 1 154.5449 20.5591)" fill="#FFFFFF" font-family="'Roboto-Medium'" font-size="4">dolor</text>
		</g>
		<g>
			<text transform="matrix(1 0 0 1 163.7832 20.5591)" fill="#FFFFFF" font-family="'Roboto-Medium'" font-size="4"> </text>
		</g>
		<g>
			<text transform="matrix(1 0 0 1 168.1094 20.5591)" fill="#FFFFFF" font-family="'Roboto-Medium'" font-size="4">sit</text>
		</g>
		<g>
			<text transform="matrix(1 0 0 1 172.5957 20.5591)" fill="#FFFFFF" font-family="'Roboto-Medium'" font-size="4"> </text>
		</g>
		<g>
			<text transform="matrix(1 0 0 1 176.9229 20.5591)" fill="#FFFFFF" font-family="'Roboto-Medium'" font-size="4">amet,</text>
		</g>
		<g>
			<text transform="matrix(1 0 0 1 186.9424 20.5591)" fill="#FFFFFF" font-family="'Roboto-Medium'" font-size="4"> </text>
		</g>
		<g>
			<text transform="matrix(1 0 0 1 191.2686 20.5591)" fill="#FFFFFF" font-family="'Roboto-Medium'" font-size="4">consectetur </text>
		</g>
		<g>
			<text transform="matrix(1 0 0 1 123.3506 26.5591)" fill="#FFFFFF" font-family="'Roboto-Medium'" font-size="4">adipiscing</text>
		</g>
		<g>
			<text transform="matrix(1 0 0 1 141.8604 26.5591)" fill="#FFFFFF" font-family="'Roboto-Medium'" font-size="4"> </text>
		</g>
		<g>
			<text transform="matrix(1 0 0 1 142.708 26.5591)" fill="#FFFFFF" font-family="'Roboto-Medium'" font-size="4">elit,</text>
		</g>
		<g>
			<text transform="matrix(1 0 0 1 149.1475 26.5591)" fill="#FFFFFF" font-family="'Roboto-Medium'" font-size="4"> </text>
		</g>
		<g>
			<text transform="matrix(1 0 0 1 149.9951 26.5591)" fill="#FFFFFF" font-family="'Roboto-Medium'" font-size="4">sed</text>
		</g>
		<g>
			<text transform="matrix(1 0 0 1 156.4346 26.5591)" fill="#FFFFFF" font-family="'Roboto-Medium'" font-size="4"> </text>
		</g>
		<g>
			<text transform="matrix(1 0 0 1 157.2822 26.5591)" fill="#FFFFFF" font-family="'Roboto-Medium'" font-size="4">do</text>
		</g>
		<g>
			<text transform="matrix(1 0 0 1 161.8135 26.5591)" fill="#FFFFFF" font-family="'Roboto-Medium'" font-size="4"> </text>
		</g>
		<g>
			<text transform="matrix(1 0 0 1 162.6611 26.5591)" fill="#FFFFFF" font-family="'Roboto-Medium'" font-size="4">eiusmod</text>
		</g>
		<g>
			<text transform="matrix(1 0 0 1 178.1475 26.5591)" fill="#FFFFFF" font-family="'Roboto-Medium'" font-size="4"> </text>
		</g>
		<g>
			<text transform="matrix(1 0 0 1 178.9951 26.5591)" fill="#FFFFFF" font-family="'Roboto-Medium'" font-size="4">tempor</text>
		</g>
		<g>
			<text transform="matrix(1 0 0 1 191.8721 26.5591)" fill="#FFFFFF" font-family="'Roboto-Medium'" font-size="4"> </text>
		</g>
		<g>
			<text transform="matrix(1 0 0 1 192.7197 26.5591)" fill="#FFFFFF" font-family="'Roboto-Medium'" font-size="4">vincididunt </text>
		</g>
		<g>
			<text transform="matrix(1 0 0 1 123.3506 32.5591)" fill="#FFFFFF" font-family="'Roboto-Medium'" font-size="4">ut</text>
		</g>
		<g>
			<text transform="matrix(1 0 0 1 126.9854 32.5591)" fill="#FFFFFF" font-family="'Roboto-Medium'" font-size="4"> </text>
		</g>
		<g>
			<text transform="matrix(1 0 0 1 129.2148 32.5591)" fill="#FFFFFF" font-family="'Roboto-Medium'" font-size="4">labo</text>
		</g>
		<g>
			<text transform="matrix(1 0 0 1 136.959 32.5591)" fill="#FFFFFF" font-family="'Roboto-Medium'" font-size="4">r</text>
		</g>
		<g>
			<text transform="matrix(1 0 0 1 138.3262 32.5591)" fill="#FFFFFF" font-family="'Roboto-Medium'" font-size="4">e</text>
		</g>
		<g>
			<text transform="matrix(1 0 0 1 140.4199 32.5591)" fill="#FFFFFF" font-family="'Roboto-Medium'" font-size="4"> </text>
		</g>
		<g>
			<text transform="matrix(1 0 0 1 142.6504 32.5591)" fill="#FFFFFF" font-family="'Roboto-Medium'" font-size="4">et</text>
		</g>
		<g>
			<text transform="matrix(1 0 0 1 146.1133 32.5591)" fill="#FFFFFF" font-family="'Roboto-Medium'" font-size="4"> </text>
		</g>
		<g>
			<text transform="matrix(1 0 0 1 148.3438 32.5591)" fill="#FFFFFF" font-family="'Roboto-Medium'" font-size="4">dolo</text>
		</g>
		<g>
			<text transform="matrix(1 0 0 1 156.1777 32.5591)" fill="#FFFFFF" font-family="'Roboto-Medium'" font-size="4">r</text>
		</g>
		<g>
			<text transform="matrix(1 0 0 1 157.5449 32.5591)" fill="#FFFFFF" font-family="'Roboto-Medium'" font-size="4">e</text>
		</g>
		<g>
			<text transform="matrix(1 0 0 1 159.6387 32.5591)" fill="#FFFFFF" font-family="'Roboto-Medium'" font-size="4"> </text>
		</g>
		<g>
			<text transform="matrix(1 0 0 1 161.8682 32.5591)" fill="#FFFFFF" font-family="'Roboto-Medium'" font-size="4">magna</text>
		</g>
		<g>
			<text transform="matrix(1 0 0 1 174.2295 32.5591)" fill="#FFFFFF" font-family="'Roboto-Medium'" font-size="4"> </text>
		</g>
		<g>
			<text transform="matrix(1 0 0 1 176.459 32.5591)" fill="#FFFFFF" font-family="'Roboto-Medium'" font-size="4">aliqua.</text>
		</g>
		<g>
			<text transform="matrix(1 0 0 1 188.5332 32.5591)" fill="#FFFFFF" font-family="'Roboto-Medium'" font-size="4"> </text>
		</g>
		<g>
			<text transform="matrix(1 0 0 1 190.7637 32.5591)" fill="#FFFFFF" font-family="'Roboto-Medium'" font-size="4">Ut</text>
		</g>
		<g>
			<text transform="matrix(1 0 0 1 194.8594 32.5591)" fill="#FFFFFF" font-family="'Roboto-Medium'" font-size="4"> </text>
		</g>
		<g>
			<text transform="matrix(1 0 0 1 197.0898 32.5591)" fill="#FFFFFF" font-family="'Roboto-Medium'" font-size="4">enim</text>
		</g>
		<g>
			<text transform="matrix(1 0 0 1 205.9648 32.5591)" fill="#FFFFFF" font-family="'Roboto-Medium'" font-size="4"> </text>
		</g>
		<g>
			<text transform="matrix(1 0 0 1 208.1943 32.5591)" fill="#FFFFFF" font-family="'Roboto-Medium'" font-size="4">ad </text>
		</g>
	</g>
</g>
<g id="Layer_1">
	<g>
		<path fill="#FFFFFF" stroke="#000000" stroke-miterlimit="10" d="M108.298,166.197c0,3.896-3.154,7.051-7.05,7.051H26.035
			c-3.895,0-7.052-3.154-7.052-7.051V25.17c0-3.891,3.157-7.049,7.052-7.049h75.213c3.896,0,7.05,3.158,7.05,7.049V166.197z"/>
		<path fill="#FFFFFF" stroke="#000000" stroke-miterlimit="10" d="M103.34,151.637c0,3.285-2.808,5.941-6.27,5.941H30.214
			c-3.461,0-6.269-2.656-6.269-5.941V32.692c0-3.289,2.808-5.951,6.269-5.951H97.07c3.462,0,6.27,2.662,6.27,5.951V151.637z"/>
		<path fill="#FFFFFF" stroke="#000000" stroke-miterlimit="10" d="M76.96,163.836c0,0.973-0.525,1.76-1.176,1.76H51.5
			c-0.649,0-1.177-0.787-1.177-1.76l0,0c0-0.979,0.527-1.762,1.177-1.762h24.284C76.435,162.074,76.96,162.857,76.96,163.836
			L76.96,163.836z"/>
		<g>
			<path fill="#007694" stroke="#000000" stroke-miterlimit="10" d="M52.669,79.36c-2.421-2.422-3.926-5.412-4.52-8.541
				l-13.482,0.002c0.678,6.563,3.528,12.95,8.561,17.982c5.031,5.031,11.416,7.882,17.982,8.56V83.881
				C58.081,83.287,55.091,81.782,52.669,79.36z"/>
			<path fill="#007694" stroke="#000000" stroke-miterlimit="10" d="M48.147,64.658c0.596-3.129,2.1-6.119,4.521-8.541
				c5.673-5.673,14.457-6.321,20.854-1.968l9.542-9.541c-11.7-9.521-28.94-8.831-39.837,2.065
				c-5.032,5.032-7.884,11.418-8.562,17.984H48.147z"/>
			<path fill="#D5FF80" stroke="#000000" stroke-miterlimit="10" d="M77.88,58.506c4.354,6.397,3.705,15.181-1.967,20.854
				c-2.422,2.422-5.412,3.927-8.541,4.522v13.48c6.567-0.678,12.951-3.528,17.982-8.561c10.897-10.896,11.586-28.137,2.067-39.836
				L77.88,58.506z"/>
		</g>
		<rect x="34.665" y="132.195" fill="#007694" stroke="#000000" stroke-miterlimit="10" width="8.49" height="17.355"/>
		<rect x="47.399" y="124.131" fill="#FF5079" stroke="#1D4557" stroke-miterlimit="10" width="8.486" height="25.42"/>
		<rect x="60.13" y="130.406" fill="none" stroke="#000000" stroke-miterlimit="10" width="8.485" height="19.145"/>
		<rect x="72.861" y="121.043" fill="#53C9FB" stroke="#1D4557" stroke-miterlimit="10" width="8.484" height="28.508"/>
		<rect x="85.594" y="127.713" fill="#B7DB6C" stroke="#000000" stroke-miterlimit="10" width="8.485" height="21.838"/>
		<rect x="32.911" y="111.411" fill="none" stroke="#000000" stroke-miterlimit="10" width="61.715" height="3.348"/>
		<rect x="32.912" y="105.396" fill="#007694" stroke="#000000" stroke-miterlimit="10" width="61.714" height="3.348"/>
		<g>
			<g>
				<g>
					<g>
						<text transform="matrix(1 0 0 1 58.4443 70.8188)"><tspan x="0" y="0" fill="#231F20" font-family="'Roboto-Bold'" font-size="8.9242">2</tspan><tspan x="6.013" y="0" fill="#231F20" font-family="'Roboto-Bold'" font-size="8.9242">9</tspan></text>
					</g>
				</g>
			</g>
		</g>
	</g>
</g>
<g id="Layer_3">
	<g>
		<g>
			<path fill="#FFFFFF" d="M108.72,211.213c0,1.65-1.35,3-3,3H20.595c-1.65,0-3-1.35-3-3v-24.477c0-1.65,1.35-3,3-3h85.125
				c1.65,0,3,1.35,3,3V211.213z"/>
			<path fill="none" stroke="#000000" stroke-miterlimit="10" d="M108.72,211.213c0,1.65-1.35,3-3,3H20.595c-1.65,0-3-1.35-3-3
				v-24.477c0-1.65,1.35-3,3-3h85.125c1.65,0,3,1.35,3,3V211.213z"/>
		</g>
		<g>
			<rect x="27.42" y="194.043" fill="#53C9FB" stroke="#1D4557" stroke-miterlimit="10" width="72.442" height="11.723"/>
		</g>
		<g>
			<rect x="86.836" y="194.043" fill="#FFFFFF" stroke="#000000" stroke-miterlimit="10" width="13.026" height="11.723"/>
		</g>
		<g>
			<path fill="#53C9FB" d="M96.42,201.93l-1.65-1.516c0.188-0.375,0.299-0.797,0.299-1.248c0-1.531-1.242-2.771-2.773-2.771
				c-1.529,0-2.771,1.24-2.771,2.771s1.241,2.773,2.771,2.773c0.451,0,0.871-0.109,1.248-0.299l1.515,1.65
				c0.15,0.158,0.394,0.162,0.55,0.01l0.822-0.822C96.584,202.324,96.578,202.078,96.42,201.93z M92.295,200.857
				c-0.934,0-1.689-0.756-1.689-1.691c0-0.932,0.756-1.691,1.689-1.691c0.936,0,1.694,0.76,1.694,1.691
				C93.989,200.102,93.23,200.857,92.295,200.857z"/>
		</g>
	</g>
</g>
<g id="Layer_4">
	<g>
		<g>
			<path fill="#FFFFFF" d="M214.267,97.904c0,1.65-1.35,3-3,3h-87.125c-1.65,0-3-1.35-3-3V50.425c0-1.65,1.35-3,3-3h87.125
				c1.65,0,3,1.35,3,3V97.904z"/>
			<path fill="none" stroke="#000000" stroke-miterlimit="10" d="M214.267,97.904c0,1.65-1.35,3-3,3h-87.125c-1.65,0-3-1.35-3-3
				V50.425c0-1.65,1.35-3,3-3h87.125c1.65,0,3,1.35,3,3V97.904z"/>
		</g>
		<g>
			<path fill="#FFFFFF" d="M124.142,88.577c-1.65,0-3,1.35-3,3v6.327c0,1.65,1.35,3,3,3h87.125c1.65,0,3-1.35,3-3v-6.327
				c0-1.65-1.35-3-3-3H124.142z"/>
			<path fill="none" stroke="#000000" stroke-miterlimit="10" d="M124.142,88.577c-1.65,0-3,1.35-3,3v6.327c0,1.65,1.35,3,3,3
				h87.125c1.65,0,3-1.35,3-3v-6.327c0-1.65-1.35-3-3-3H124.142z"/>
		</g>
		<circle fill="#FF5079" stroke="#1D4557" stroke-miterlimit="10" cx="168.307" cy="68.591" r="14.335"/>
		<polygon fill="#FFFFFF" stroke="#000000" stroke-miterlimit="10" points="163.639,76.093 176.502,68.594 163.639,61.084 		"/>
		<rect x="129.01" y="93.158" fill="#FFFFFF" stroke="#000000" stroke-miterlimit="10" width="76.273" height="3.611"/>
		<rect x="129.01" y="93.158" fill="#007694" stroke="#000000" stroke-miterlimit="10" width="62.848" height="3.611"/>
		<g>
			<g>
				<g>
					<g>
						<text transform="matrix(1 0 0 1 190.6084 65.6558)"><tspan x="0" y="0" fill="#231F20" font-family="'Roboto-Bold'" font-size="8.9242">2</tspan><tspan x="6.013" y="0" fill="#231F20" font-family="'Roboto-Bold'" font-size="8.9242">9</tspan></text>
					</g>
				</g>
			</g>
		</g>
		<g>
			<g>
				<g>
					<g>
						<text transform="matrix(1 0 0 1 190.6084 75.981)"><tspan x="0" y="0" fill="#231F20" font-family="'Roboto-Bold'" font-size="8.9242">2</tspan><tspan x="6.013" y="0" fill="#231F20" font-family="'Roboto-Bold'" font-size="8.9242">9</tspan></text>
					</g>
				</g>
			</g>
		</g>
		<g>
			<g>
				<g>
					<g>
						<text transform="matrix(1 0 0 1 135.2568 65.6558)"><tspan x="0" y="0" fill="#231F20" font-family="'Roboto-Bold'" font-size="8.9242">2</tspan><tspan x="6.013" y="0" fill="#231F20" font-family="'Roboto-Bold'" font-size="8.9242">9</tspan></text>
					</g>
				</g>
			</g>
		</g>
		<g>
			<g>
				<g>
					<g>
						<text transform="matrix(1 0 0 1 135.2568 75.981)"><tspan x="0" y="0" fill="#231F20" font-family="'Roboto-Bold'" font-size="8.9242">2</tspan><tspan x="6.013" y="0" fill="#231F20" font-family="'Roboto-Bold'" font-size="8.9242">9</tspan></text>
					</g>
				</g>
			</g>
		</g>
	</g>
</g>
<g id="Layer_5">
	<g>
		<g>
			<path fill="#FFFFFF" stroke="#000000" stroke-miterlimit="10" d="M213.246,187.482c0,3.613-2.929,6.545-6.544,6.545h-77.42
				c-3.613,0-6.542-2.932-6.542-6.545v-68.778c0-3.611,2.929-6.542,6.542-6.542h77.42c3.615,0,6.544,2.931,6.544,6.542V187.482z"/>
			<path fill="#FFFFFF" stroke="#000000" stroke-miterlimit="10" d="M127.318,129.609v54.523c0,3.371,2.633,6.107,5.882,6.107
				h69.586c3.25,0,5.881-2.736,5.881-6.107v-54.523H127.318z"/>
			<path fill="#FFFFFF" stroke="#000000" stroke-miterlimit="10" d="M140.823,121.158c0,1.217-0.984,2.201-2.201,2.201
				c-1.213,0-2.196-0.984-2.196-2.201c0-1.213,0.983-2.196,2.196-2.196C139.839,118.962,140.823,119.945,140.823,121.158z"/>
			<path fill="#FFFFFF" stroke="#000000" stroke-miterlimit="10" d="M133.665,121.158c0,1.217-0.984,2.201-2.199,2.201
				c-1.213,0-2.198-0.984-2.198-2.201c0-1.213,0.985-2.196,2.198-2.196C132.681,118.962,133.665,119.945,133.665,121.158z"/>
			<path fill="#FFFFFF" stroke="#000000" stroke-miterlimit="10" d="M147.604,121.158c0,1.217-0.987,2.201-2.2,2.201
				c-1.214,0-2.198-0.984-2.198-2.201c0-1.213,0.984-2.196,2.198-2.196C146.617,118.962,147.604,119.945,147.604,121.158z"/>
			<path fill="#FFFFFF" stroke="#000000" stroke-miterlimit="10" d="M207.306,121.723c0,0.906-0.732,1.637-1.637,1.637h-51.523
				c-0.902,0-1.635-0.73-1.635-1.637v-1.125c0-0.904,0.732-1.635,1.635-1.635h51.523c0.904,0,1.637,0.731,1.637,1.635V121.723z"/>
		</g>
		<circle fill="#B7DB6C" stroke="#000000" stroke-miterlimit="10" cx="150.208" cy="152.137" r="13.776"/>
		<rect x="136.288" y="172.152" fill="#B7DB6C" stroke="#000000" stroke-miterlimit="10" width="27.842" height="3.348"/>
		<rect x="136.288" y="178.143" fill="#007694" stroke="#000000" stroke-miterlimit="10" width="27.842" height="3.348"/>
		<circle fill="#007694" stroke="#000000" stroke-miterlimit="10" cx="186.555" cy="167.713" r="13.776"/>
		<rect x="172.634" y="144.35" fill="#B7DB6C" stroke="#000000" stroke-miterlimit="10" width="27.842" height="3.348"/>
		<rect x="172.634" y="138.359" fill="#007694" stroke="#000000" stroke-miterlimit="10" width="27.842" height="3.348"/>
		<path fill="#D5FF80" stroke="#000000" stroke-miterlimit="10" d="M182.884,163.934c0,1.92,0.947,3.559,2.291,4.24l-0.109,0.584
			c-0.956,1.281-5.263,1.279-5.263,6.186h6.706h0.095l0,0h6.705c0-4.82-4.162-4.9-5.212-6.121l-0.125-0.664
			c1.326-0.693,2.256-2.322,2.256-4.225c0-2.527-1.643-4.578-3.67-4.578C184.528,159.355,182.884,161.406,182.884,163.934z"/>
		<path fill="#FF5079" stroke="#1D4557" stroke-miterlimit="10" d="M146.537,148.346c0,1.92,0.947,3.559,2.291,4.24l-0.109,0.586
			c-0.956,1.281-5.263,1.279-5.263,6.184h6.706h0.095l0,0h6.705c0-4.82-4.162-4.9-5.212-6.121l-0.125-0.664
			c1.326-0.691,2.256-2.32,2.256-4.225c0-2.527-1.643-4.576-3.67-4.576C148.182,143.77,146.537,145.818,146.537,148.346z"/>
	</g>
</g>
<g id="Layer_6">
	<g>
		<g>
			<path fill="#FFFFFF" stroke="#000000" stroke-miterlimit="10" d="M317.326,119.291c0,3.613-2.929,6.545-6.544,6.545h-77.42
				c-3.613,0-6.542-2.932-6.542-6.545V25.509c0-3.611,2.929-6.542,6.542-6.542h77.42c3.615,0,6.544,2.931,6.544,6.542V119.291z"/>
			<path fill="#FFFFFF" stroke="#000000" stroke-miterlimit="10" d="M231.398,36.415v79.526c0,3.37,2.633,6.106,5.882,6.106h69.586
				c3.25,0,5.881-2.736,5.881-6.106V36.415H231.398z"/>
			<path fill="#FFFFFF" stroke="#000000" stroke-miterlimit="10" d="M244.903,27.963c0,1.216-0.984,2.201-2.201,2.201
				c-1.213,0-2.196-0.985-2.196-2.201c0-1.214,0.983-2.196,2.196-2.196C243.919,25.767,244.903,26.75,244.903,27.963z"/>
			<circle fill="#FFFFFF" stroke="#000000" stroke-miterlimit="10" cx="235.546" cy="27.963" r="2.199"/>
			<circle fill="#FFFFFF" stroke="#000000" stroke-miterlimit="10" cx="249.485" cy="27.963" r="2.199"/>
			<path fill="#FFFFFF" stroke="#000000" stroke-miterlimit="10" d="M311.386,28.528c0,0.905-0.732,1.637-1.637,1.637h-51.523
				c-0.902,0-1.635-0.731-1.635-1.637v-1.126c0-0.904,0.732-1.635,1.635-1.635h51.523c0.904,0,1.637,0.73,1.637,1.635V28.528z"/>
		</g>
		<rect x="249.698" y="100.123" fill="#FFFFFF" stroke="#000000" stroke-miterlimit="10" width="45.559" height="15.242"/>
		<polygon fill="#FFFFFF" stroke="#000000" stroke-miterlimit="10" points="300.128,109.838 303.718,107.745 300.128,105.651 		"/>
		<polygon fill="#FFFFFF" stroke="#000000" stroke-miterlimit="10" points="244.547,105.651 240.96,107.745 244.547,109.838 		"/>
		<rect x="241.346" y="90.865" fill="#007694" stroke="#000000" stroke-miterlimit="10" width="35.254" height="3.189"/>
		<rect x="261.639" y="84.806" fill="#FFFFFF" stroke="#000000" stroke-miterlimit="10" width="14.961" height="3.189"/>
		<rect x="241.443" y="84.809" fill="#FF5079" stroke="#1D4557" stroke-miterlimit="10" width="23.207" height="3.189"/>
		<rect x="241.345" y="78.159" fill="#007694" stroke="#000000" stroke-miterlimit="10" width="12.013" height="3.189"/>
		<rect x="266.725" y="72.1" fill="#007694" stroke="#000000" stroke-miterlimit="10" width="9.875" height="3.189"/>
		<rect x="256.701" y="78.156" fill="#53C9FB" stroke="#1D4557" stroke-miterlimit="10" width="19.898" height="3.189"/>
		<rect x="241.443" y="72.102" fill="#007694" stroke="#000000" stroke-miterlimit="10" width="26.354" height="3.189"/>
		<polygon fill="#007694" stroke="#000000" stroke-miterlimit="10" points="280.8,66.108 292.613,54.616 303.217,66.108 		"/>
		<polygon fill="#FFFFFF" stroke="#000000" stroke-miterlimit="10" points="266.65,66.108 278.464,47.218 289.067,66.108 		"/>
		<polygon fill="#D5FF80" stroke="#000000" stroke-miterlimit="10" points="252.501,66.108 264.314,43.124 274.918,66.108 		"/>
		<polygon fill="#53C9FB" stroke="#1D4557" stroke-miterlimit="10" points="241.293,66.108 253.106,51.468 263.71,66.108 		"/>
		<rect x="282.625" y="71.819" fill="#FF5079" stroke="#1D4557" stroke-miterlimit="10" width="20.592" height="22.339"/>
	</g>
</g>
<g id="Layer_7">
	<g>
		<g>
			<path fill="#FFFFFF" d="M317.368,170.377c0,1.65-1.35,3-3,3h-85.125c-1.65,0-3-1.35-3-3v-32.475c0-1.65,1.35-3,3-3h85.125
				c1.65,0,3,1.35,3,3V170.377z"/>
			<path fill="none" stroke="#000000" stroke-miterlimit="10" d="M317.368,170.377c0,1.65-1.35,3-3,3h-85.125c-1.65,0-3-1.35-3-3
				v-32.475c0-1.65,1.35-3,3-3h85.125c1.65,0,3,1.35,3,3V170.377z"/>
		</g>
		<g>
			<polygon fill="#53C9FB" stroke="#1D4557" stroke-linecap="round" stroke-linejoin="round" stroke-miterlimit="10" points="
				293.088,160.139 295.565,158.074 305.908,149.451 305.908,148.859 293.088,140.873 280.31,148.859 280.31,149.451 
				290.592,158.051 			"/>
			
				<rect x="281.171" y="145.715" fill="#FF5079" stroke="#1D4557" stroke-linecap="round" stroke-linejoin="round" stroke-miterlimit="10" width="23.702" height="17.611"/>
			<polygon fill="#53C9FB" stroke="#1D4557" stroke-linecap="round" stroke-linejoin="round" stroke-miterlimit="10" points="
				280.31,148.859 280.31,165.926 290.592,157.457 			"/>
			<polygon fill="#53C9FB" stroke="#1D4557" stroke-linecap="round" stroke-linejoin="round" stroke-miterlimit="10" points="
				293.088,159.545 290.592,157.457 280.31,165.926 305.908,165.926 295.565,157.48 			"/>
			<polygon fill="#53C9FB" stroke="#1D4557" stroke-linecap="round" stroke-linejoin="round" stroke-miterlimit="10" points="
				295.565,157.48 305.908,165.926 305.908,148.859 			"/>
		</g>
		<rect x="235.546" y="144.564" fill="#FFFFFF" stroke="#000000" stroke-miterlimit="10" width="36.932" height="4.908"/>
		<rect x="235.546" y="144.564" fill="#FF5079" stroke="#1D4557" stroke-miterlimit="10" width="23.427" height="4.908"/>
		<rect x="235.546" y="152.938" fill="#FFFFFF" stroke="#000000" stroke-miterlimit="10" width="36.932" height="4.908"/>
		<rect x="235.546" y="152.938" fill="#D5FF80" stroke="#000000" stroke-miterlimit="10" width="9.608" height="4.908"/>
		<rect x="235.546" y="161.311" fill="#FFFFFF" stroke="#000000" stroke-miterlimit="10" width="36.932" height="4.908"/>
		<rect x="235.546" y="161.311" fill="#007694" stroke="#000000" stroke-miterlimit="10" width="29.104" height="4.908"/>
	</g>
</g>
</svg>
